<svg width="122" height="18" viewBox="0 0 122 18" fill="none" xmlns="http://www.w3.org/2000/svg">
<g clip-path="url(#clip0_1_13901)">
<path d="M17.6621 6.67603C17.5299 6.28256 17.1893 5.99569 16.7792 5.93297L12.0067 5.20369L9.86302 0.637031C9.68021 0.247781 9.28955 0 8.86036 0C8.4309 0 8.04052 0.247781 7.85771 0.637031L5.71374 5.20397L0.941209 5.93325C0.531146 5.99597 0.190553 6.28256 0.0586463 6.67631C-0.07326 7.07006 0.0263025 7.50375 0.316271 7.80131L3.80152 11.3752L2.97605 16.4312C2.90799 16.8497 3.08546 17.2704 3.43168 17.5151C3.77761 17.7598 4.23436 17.7846 4.60646 17.5792L8.86065 15.2266L13.1148 17.5792C13.2827 17.6721 13.4675 17.7176 13.6515 17.7176C13.8753 17.7176 14.0992 17.6496 14.2896 17.5151C14.6358 17.2707 14.813 16.85 14.745 16.4312L13.9195 11.3752L17.405 7.80131C17.6944 7.50375 17.794 7.07006 17.6621 6.67603Z" fill="#F7B50D"/>
</g>
<g clip-path="url(#clip1_1_13901)">
<path d="M43.662 6.67603C43.5298 6.28256 43.1892 5.99569 42.7792 5.93297L38.0066 5.20369L35.863 0.637031C35.6801 0.247781 35.2895 0 34.8603 0C34.4308 0 34.0405 0.247781 33.8576 0.637031L31.7137 5.20397L26.9411 5.93325C26.5311 5.99597 26.1905 6.28256 26.0586 6.67631C25.9267 7.07006 26.0262 7.50375 26.3162 7.80131L29.8015 11.3752L28.976 16.4312C28.9079 16.8497 29.0854 17.2704 29.4316 17.5151C29.7776 17.7598 30.2343 17.7846 30.6064 17.5792L34.8606 15.2266L39.1148 17.5792C39.2827 17.6721 39.4675 17.7176 39.6514 17.7176C39.8753 17.7176 40.0991 17.6496 40.2896 17.5151C40.6358 17.2707 40.813 16.85 40.7449 16.4312L39.9194 11.3752L43.405 7.80131C43.6944 7.50375 43.7939 7.07006 43.662 6.67603Z" fill="#F7B50D"/>
</g>
<g clip-path="url(#clip2_1_13901)">
<path d="M69.662 6.67603C69.5298 6.28256 69.1892 5.99569 68.7792 5.93297L64.0066 5.20369L61.863 0.637031C61.6801 0.247781 61.2895 0 60.8603 0C60.4308 0 60.0405 0.247781 59.8576 0.637031L57.7137 5.20397L52.9411 5.93325C52.5311 5.99597 52.1905 6.28256 52.0586 6.67631C51.9267 7.07006 52.0262 7.50375 52.3162 7.80131L55.8015 11.3752L54.976 16.4312C54.9079 16.8497 55.0854 17.2704 55.4316 17.5151C55.7776 17.7598 56.2343 17.7846 56.6064 17.5792L60.8606 15.2266L65.1148 17.5792C65.2827 17.6721 65.4675 17.7176 65.6514 17.7176C65.8753 17.7176 66.0991 17.6496 66.2896 17.5151C66.6358 17.2707 66.813 16.85 66.7449 16.4312L65.9194 11.3752L69.405 7.80131C69.6944 7.50375 69.7939 7.07006 69.662 6.67603Z" fill="#F7B50D"/>
</g>
<g clip-path="url(#clip3_1_13901)">
<path d="M95.662 6.67603C95.5298 6.28256 95.1892 5.99569 94.7792 5.93297L90.0066 5.20369L87.863 0.637031C87.6801 0.247781 87.2895 0 86.8603 0C86.4308 0 86.0405 0.247781 85.8576 0.637031L83.7137 5.20397L78.9411 5.93325C78.5311 5.99597 78.1905 6.28256 78.0586 6.67631C77.9267 7.07006 78.0262 7.50375 78.3162 7.80131L81.8015 11.3752L80.976 16.4312C80.9079 16.8497 81.0854 17.2704 81.4316 17.5151C81.7776 17.7598 82.2343 17.7846 82.6064 17.5792L86.8606 15.2266L91.1148 17.5792C91.2827 17.6721 91.4675 17.7176 91.6514 17.7176C91.8753 17.7176 92.0991 17.6496 92.2896 17.5151C92.6358 17.2707 92.813 16.85 92.7449 16.4312L91.9194 11.3752L95.405 7.80131C95.6944 7.50375 95.7939 7.07006 95.662 6.67603Z" fill="#F7B50D"/>
</g>
<g clip-path="url(#clip4_1_13901)">
<path d="M121.662 6.67603C121.53 6.28256 121.189 5.99569 120.779 5.93297L116.007 5.20369L113.863 0.637031C113.68 0.247781 113.289 0 112.86 0C112.431 0 112.04 0.247781 111.858 0.637031L109.714 5.20397L104.941 5.93325C104.531 5.99597 104.19 6.28256 104.059 6.67631C103.927 7.07006 104.026 7.50375 104.316 7.80131L107.801 11.3752L106.976 16.4312C106.908 16.8497 107.085 17.2704 107.432 17.5151C107.778 17.7598 108.234 17.7846 108.606 17.5792L112.861 15.2266L117.115 17.5792C117.283 17.6721 117.467 17.7176 117.651 17.7176C117.875 17.7176 118.099 17.6496 118.29 17.5151C118.636 17.2707 118.813 16.85 118.745 16.4312L117.919 11.3752L121.405 7.80131C121.694 7.50375 121.794 7.07006 121.662 6.67603Z" fill="#F7B50D"/>
</g>
<defs>
<clipPath id="clip0_1_13901">
<rect width="18" height="18" fill="white"/>
</clipPath>
<clipPath id="clip1_1_13901">
<rect width="18" height="18" fill="white" transform="translate(26)"/>
</clipPath>
<clipPath id="clip2_1_13901">
<rect width="18" height="18" fill="white" transform="translate(52)"/>
</clipPath>
<clipPath id="clip3_1_13901">
<rect width="18" height="18" fill="white" transform="translate(78)"/>
</clipPath>
<clipPath id="clip4_1_13901">
<rect width="18" height="18" fill="white" transform="translate(104)"/>
</clipPath>
</defs>
</svg>
