<svg width="105" height="30" viewBox="0 0 105 30" fill="none" xmlns="http://www.w3.org/2000/svg">
<path d="M46.18 9.04V23H43.38V9.04H46.18ZM53.7664 23.14C52.7931 23.14 51.9131 22.9733 51.1264 22.64C50.3531 22.3067 49.7397 21.8267 49.2864 21.2C48.8331 20.5733 48.5997 19.8333 48.5864 18.98H51.5864C51.6264 19.5533 51.8264 20.0067 52.1864 20.34C52.5597 20.6733 53.0664 20.84 53.7064 20.84C54.3597 20.84 54.8731 20.6867 55.2464 20.38C55.6197 20.06 55.8064 19.6467 55.8064 19.14C55.8064 18.7267 55.6797 18.3867 55.4264 18.12C55.1731 17.8533 54.8531 17.6467 54.4664 17.5C54.0931 17.34 53.5731 17.1667 52.9064 16.98C51.9997 16.7133 51.2597 16.4533 50.6864 16.2C50.1264 15.9333 49.6397 15.54 49.2264 15.02C48.8264 14.4867 48.6264 13.78 48.6264 12.9C48.6264 12.0733 48.8331 11.3533 49.2464 10.74C49.6597 10.1267 50.2397 9.66 50.9864 9.34C51.7331 9.00667 52.5864 8.84 53.5464 8.84C54.9864 8.84 56.1531 9.19333 57.0464 9.9C57.9531 10.5933 58.4531 11.5667 58.5464 12.82H55.4664C55.4397 12.34 55.2331 11.9467 54.8464 11.64C54.4731 11.32 53.9731 11.16 53.3464 11.16C52.7997 11.16 52.3597 11.3 52.0264 11.58C51.7064 11.86 51.5464 12.2667 51.5464 12.8C51.5464 13.1733 51.6664 13.4867 51.9064 13.74C52.1597 13.98 52.4664 14.18 52.8264 14.34C53.1997 14.4867 53.7197 14.66 54.3864 14.86C55.2931 15.1267 56.0331 15.3933 56.6064 15.66C57.1797 15.9267 57.6731 16.3267 58.0864 16.86C58.4997 17.3933 58.7064 18.0933 58.7064 18.96C58.7064 19.7067 58.5131 20.4 58.1264 21.04C57.7397 21.68 57.1731 22.1933 56.4264 22.58C55.6797 22.9533 54.7931 23.14 53.7664 23.14ZM70.6339 9.04V11.3H66.9139V23H64.1139V11.3H60.3939V9.04H70.6339ZM81.2369 20.34H75.6769L74.7569 23H71.8169L76.8369 9.02H80.0969L85.1169 23H82.1569L81.2369 20.34ZM80.4769 18.1L78.4569 12.26L76.4369 18.1H80.4769ZM89.7933 9.04V23H86.9933V9.04H89.7933ZM100.92 23L97.8997 18.3L95.1597 23H91.9997L96.3997 15.96L91.9397 9.04H95.1597L98.1797 13.72L100.9 9.04H104.06L99.6797 16.06L104.14 23H100.92Z" fill="white"/>
<path d="M3 21.5V3H19.5V21.5" stroke="#E4E3E8" stroke-width="6"/>
<path d="M27.5 8V26.5H11V8" stroke="#E4E3E8" stroke-width="6"/>
</svg>
